<svg width="18" height="20" viewBox="0 0 18 20" fill="none" xmlns="http://www.w3.org/2000/svg">
<g clip-path="url(#clip0_19579_22)">
<path d="M8.99995 5.2481C6.48524 5.2481 4.48134 7.285 4.48134 9.75277C4.48134 12.2597 6.48524 14.2574 8.99995 14.2574C11.4754 14.2574 13.5186 12.2597 13.5186 9.75277C13.5186 7.285 11.4754 5.2481 8.99995 5.2481ZM8.99995 12.6906C7.38897 12.6906 6.05303 11.3979 6.05303 9.75277C6.05303 8.14675 7.34968 6.85412 8.99995 6.85412C10.611 6.85412 11.9076 8.14675 11.9076 9.75277C11.9076 11.3979 10.611 12.6906 8.99995 12.6906ZM14.7367 5.09141C14.7367 4.50385 14.2652 4.0338 13.6757 4.0338C13.0864 4.0338 12.6149 4.50385 12.6149 5.09141C12.6149 5.67898 13.0864 6.14904 13.6757 6.14904C14.2652 6.14904 14.7367 5.67898 14.7367 5.09141ZM17.7229 6.14904C17.6443 4.73888 17.3299 3.48541 16.3083 2.46696C15.2867 1.44851 14.0294 1.13515 12.6149 1.0568C11.161 0.978461 6.79959 0.978461 5.34577 1.0568C3.93125 1.13515 2.71318 1.44851 1.6523 2.46696C0.630694 3.48541 0.316356 4.73888 0.237771 6.14904C0.159187 7.59836 0.159187 11.9463 0.237771 13.3957C0.316356 14.8058 0.630694 16.0201 1.6523 17.0778C2.71318 18.0962 3.93125 18.4096 5.34577 18.4879C6.79959 18.5662 11.161 18.5662 12.6149 18.4879C14.0294 18.4096 15.2867 18.0962 16.3083 17.0778C17.3299 16.0201 17.6443 14.8058 17.7229 13.3957C17.8014 11.9463 17.8014 7.59836 17.7229 6.14904ZM15.8368 14.9234C15.5618 15.7067 14.9331 16.2943 14.1865 16.6077C13.0078 17.0778 10.2573 16.9602 8.99995 16.9602C7.7033 16.9602 4.95284 17.0778 3.81337 16.6077C3.02753 16.2943 2.43813 15.7067 2.1238 14.9234C1.6523 13.7874 1.77018 11.0454 1.77018 9.75277C1.77018 8.4993 1.6523 5.75732 2.1238 4.58219C2.43813 3.83794 3.02753 3.25038 3.81337 2.93701C4.95284 2.46696 7.7033 2.58447 8.99995 2.58447C10.2573 2.58447 13.0078 2.46696 14.1865 2.93701C14.9331 3.21121 15.5225 3.83794 15.8368 4.58219C16.3083 5.75732 16.1904 8.4993 16.1904 9.75277C16.1904 11.0454 16.3083 13.7874 15.8368 14.9234Z" fill="#292F36"/>
</g>
<defs>
<clipPath id="clip0_19579_22">
<rect width="18" height="19" fill="white" transform="translate(0 0.203125)"/>
</clipPath>
</defs>
</svg>
